<svg xmlns="http://www.w3.org/2000/svg" height="48" viewBox="0 -960 960 960" width="48" fill="#e8eaed"><path d="M180-80q-24 0-42-18t-18-42v-620q0-24 18-42t42-18h65v-28q0-13.6 9.2-22.8T277-880q14.02 0 23.51 9.2T310-848v28h340v-28q0-13.6 9.2-22.8T682-880q14.03 0 23.51 9.2Q715-861.6 715-848v28h65q24 0 42 18t18 42v620q0 24-18 42t-42 18zm0-60h600v-430H180zm0-490h600v-130H180zm0 0v-130zm300 230q-17 0-28.5-11.5T440-440t11.5-28.5T480-480t28.5 11.5T520-440t-11.5 28.5T480-400m-160 0q-17 0-28.5-11.5T280-440t11.5-28.5T320-480t28.5 11.5T360-440t-11.5 28.5T320-400m320 0q-17 0-28.5-11.5T600-440t11.5-28.5T640-480t28.5 11.5T680-440t-11.5 28.5T640-400M480-240q-17 0-28.5-11.5T440-280t11.5-28.5T480-320t28.5 11.5T520-280t-11.5 28.5T480-240m-160 0q-17 0-28.5-11.5T280-280t11.5-28.5T320-320t28.5 11.5T360-280t-11.5 28.5T320-240m320 0q-17 0-28.5-11.5T600-280t11.5-28.5T640-320t28.5 11.5T680-280t-11.5 28.5T640-240" fill="#969696"/></svg>