<?xml version="1.0" encoding="utf-8"?>
<svg width="315" height="315" viewBox="0 0 315 315" fill="none" xmlns="http://www.w3.org/2000/svg">
  <g>
    <g>
      <path d="M285 0C301.571 0 315 13.4292 315 30L315 285C315 301.571 301.571 315 285 315L30 315C13.4292 315 0 301.571 0 285L0 30C0 13.4292 13.4292 0 30 0L285 0Z" fill="#F6F5F4" />
      <path d="M0 20.0001L0 40.0001L0.000244141 130C0.000244141 130 0.000244141 150.094 0.000244141 150.094C0.000236511 155.591 1.9437 160.283 5.83064 164.17C9.71758 168.057 14.4095 170 19.9065 170C19.9065 170 180.094 170 180.094 170C185.591 170 190.283 168.057 194.17 164.17C198.057 160.283 200 155.591 200 150.094C200 150.094 200 70 200 70C200 58.9528 191.047 50 180 50C180 50 101 50.0001 101 50.0001C92.7148 50.0001 86.0002 56.7147 86.0002 65.0001C86.0002 65.0001 86.0002 75.0001 86.0002 75.0001C86.0002 83.2855 92.7148 90.0001 101 90.0001L150.102 90.0001Q150.345 90.0001 150.587 90.012Q150.83 90.0239 151.072 90.0477Q151.314 90.0715 151.554 90.1072Q151.795 90.1429 152.033 90.1903Q152.271 90.2377 152.507 90.2967Q152.743 90.3557 152.975 90.4263Q153.208 90.4968 153.436 90.5787Q153.665 90.6605 153.89 90.7535Q154.114 90.8465 154.334 90.9504Q154.554 91.0543 154.768 91.1689Q154.982 91.2834 155.191 91.4083Q155.399 91.5332 155.601 91.6682Q155.803 91.8032 155.998 91.948Q156.193 92.0927 156.381 92.2469Q156.569 92.401 156.749 92.5642Q156.929 92.7274 157.101 92.8992Q157.273 93.0711 157.436 93.2511Q157.599 93.4312 157.753 93.619Q157.908 93.8068 158.052 94.002Q158.197 94.1972 158.332 94.3992Q158.467 94.6012 158.592 94.8097Q158.717 95.0181 158.831 95.2324Q158.946 95.4467 159.05 95.6664Q159.154 95.886 159.247 96.1105Q159.34 96.335 159.422 96.5638Q159.503 96.7926 159.574 97.0251Q159.645 97.2577 159.704 97.4934Q159.763 97.7291 159.81 97.9674Q159.857 98.2057 159.893 98.4461Q159.929 98.6865 159.953 98.9283Q159.976 99.1701 159.988 99.4128Q160 99.6555 160 99.8985L160 120.102Q160 120.345 159.988 120.587Q159.976 120.83 159.953 121.072Q159.929 121.314 159.893 121.554Q159.857 121.794 159.81 122.033Q159.763 122.271 159.704 122.507Q159.645 122.742 159.574 122.975Q159.503 123.207 159.422 123.436Q159.34 123.665 159.247 123.89Q159.154 124.114 159.05 124.334Q158.946 124.553 158.831 124.768Q158.717 124.982 158.592 125.19Q158.467 125.399 158.332 125.601Q158.197 125.803 158.052 125.998Q157.908 126.193 157.753 126.381Q157.599 126.569 157.436 126.749Q157.273 126.929 157.101 127.101Q156.929 127.273 156.749 127.436Q156.569 127.599 156.381 127.753Q156.193 127.907 155.998 128.052Q155.803 128.197 155.601 128.332Q155.399 128.467 155.191 128.592Q154.982 128.717 154.768 128.831Q154.554 128.946 154.334 129.05Q154.114 129.154 153.89 129.247Q153.665 129.34 153.436 129.421Q153.208 129.503 152.975 129.574Q152.743 129.644 152.507 129.703Q152.271 129.762 152.033 129.81Q151.795 129.857 151.554 129.893Q151.314 129.929 151.072 129.952Q150.83 129.976 150.587 129.988Q150.345 130 150.102 130L49.8987 130Q49.6557 130 49.413 129.988Q49.1703 129.976 48.9285 129.952Q48.6866 129.929 48.4463 129.893Q48.2059 129.857 47.9676 129.81Q47.7292 129.762 47.4935 129.703Q47.2578 129.644 47.0253 129.574Q46.7928 129.503 46.564 129.421Q46.3352 129.34 46.1107 129.247Q45.8862 129.154 45.6665 129.05Q45.4469 128.946 45.2326 128.831Q45.0183 128.717 44.8099 128.592Q44.6014 128.467 44.3994 128.332Q44.1973 128.197 44.0022 128.052Q43.807 127.907 43.6192 127.753Q43.4313 127.599 43.2513 127.436Q43.0712 127.273 42.8994 127.101Q42.7276 126.929 42.5644 126.749Q42.4012 126.569 42.2471 126.381Q42.0929 126.193 41.9482 125.998Q41.8034 125.803 41.6684 125.601Q41.5334 125.399 41.4085 125.19Q41.2836 124.982 41.169 124.768Q41.0545 124.553 40.9506 124.334Q40.8467 124.114 40.7537 123.89Q40.6607 123.665 40.5788 123.436Q40.497 123.207 40.4265 122.975Q40.3559 122.742 40.2969 122.507Q40.2378 122.271 40.1904 122.033Q40.143 121.794 40.1074 121.554Q40.0717 121.314 40.0479 121.072Q40.0241 120.83 40.0122 120.587Q40.0002 120.345 40.0002 120.102L40.0002 49.8985Q40.0002 49.6555 40.0122 49.4128Q40.0241 49.1701 40.0479 48.9283Q40.0717 48.6865 40.1074 48.4461Q40.143 48.2057 40.1904 47.9674Q40.2378 47.7291 40.2969 47.4934Q40.3559 47.2577 40.4265 47.0251Q40.497 46.7926 40.5788 46.5638Q40.6607 46.335 40.7537 46.1105Q40.8467 45.886 40.9506 45.6664Q41.0545 45.4467 41.169 45.2324Q41.2836 45.0181 41.4085 44.8097Q41.5334 44.6013 41.6684 44.3992Q41.8034 44.1972 41.9482 44.002Q42.0929 43.8068 42.2471 43.619Q42.4012 43.4312 42.5644 43.2511Q42.7276 43.0711 42.8994 42.8992Q43.0712 42.7274 43.2513 42.5642Q43.4313 42.4011 43.6192 42.2469Q43.807 42.0927 44.0022 41.948Q44.1973 41.8032 44.3994 41.6682Q44.6014 41.5332 44.8099 41.4083Q45.0183 41.2834 45.2326 41.1689Q45.4469 41.0543 45.6665 40.9504Q45.8862 40.8465 46.1107 40.7535Q46.3352 40.6605 46.564 40.5787Q46.7928 40.4968 47.0253 40.4263Q47.2578 40.3557 47.4935 40.2967Q47.7292 40.2377 47.9676 40.1903Q48.2059 40.1429 48.4463 40.1072Q48.6866 40.0715 48.9285 40.0477Q49.1703 40.0239 49.413 40.012Q49.6557 40.0001 49.8987 40.0001C67.1722 40.0001 101 40.0001 101 40.0001C109.286 40.0001 112 28.1865 112 19.9011C112 19.9011 112 19.9011 112 19.9011C112 11.6157 109.286 6.10352e-05 101 6.10352e-05L40.0002 6.10352e-05L20.0002 6.10352e-05C20.0002 6.10352e-05 19.9065 0 19.9065 0C14.4105 0 9.71918 1.94286 5.83246 5.82858C1.94573 9.71431 0.00165558 14.4052 0.000244141 19.9011L0 20.0001L0 20.0001Z" fill="#4389F1" fill-rule="evenodd" transform="translate(57 72)" />
      <path d="M9.89844 0L25.1016 0Q25.3446 0 25.5873 0.0119231Q25.83 0.0238462 26.0718 0.0476637Q26.3136 0.0714812 26.554 0.107136Q26.7943 0.14279 27.0326 0.190196Q27.271 0.237601 27.5067 0.296644Q27.7424 0.355686 27.9749 0.426223Q28.2075 0.49676 28.4362 0.578622Q28.665 0.660484 28.8895 0.753474Q29.114 0.846463 29.3337 0.950356Q29.5533 1.05425 29.7677 1.16879Q29.982 1.28334 30.1904 1.40826Q30.3988 1.53319 30.6008 1.66819Q30.8029 1.80319 30.998 1.94794Q31.1932 2.09269 31.3811 2.24684Q31.5689 2.40099 31.7489 2.56418Q31.929 2.72736 32.1008 2.89918Q32.2726 3.07101 32.4358 3.25105Q32.599 3.4311 32.7532 3.61893Q32.9073 3.80677 33.0521 4.00194Q33.1968 4.19712 33.3318 4.39916Q33.4668 4.6012 33.5917 4.80962Q33.7167 5.01804 33.8312 5.23235Q33.9457 5.44665 34.0496 5.66631Q34.1535 5.88597 34.2465 6.11047Q34.3395 6.33496 34.4214 6.56375Q34.5032 6.79254 34.5738 7.02507Q34.6443 7.2576 34.7034 7.49331Q34.7624 7.72902 34.8098 7.96735Q34.8572 8.20567 34.8929 8.44604Q34.9285 8.6864 34.9523 8.92822Q34.9762 9.17004 34.9881 9.41274Q35 9.65545 35 9.89844L35 13.0912L35 29.6016Q35 29.8446 34.9881 30.0873Q34.9762 30.33 34.9523 30.5718Q34.9285 30.8136 34.8929 31.054Q34.8572 31.2943 34.8098 31.5326Q34.7624 31.771 34.7034 32.0067Q34.6443 32.2424 34.5738 32.4749Q34.5032 32.7075 34.4214 32.9362Q34.3395 33.165 34.2465 33.3895Q34.1535 33.614 34.0496 33.8337Q33.9458 34.0534 33.8312 34.2677Q33.7167 34.482 33.5917 34.6904Q33.4668 34.8988 33.3318 35.1008Q33.1968 35.3029 33.0521 35.4981Q32.9073 35.6932 32.7532 35.8811Q32.599 36.0689 32.4358 36.2489Q32.2726 36.429 32.1008 36.6008Q31.929 36.7726 31.7489 36.9358Q31.5689 37.099 31.3811 37.2532Q31.1932 37.4073 30.9981 37.5521Q30.8029 37.6968 30.6008 37.8318Q30.3988 37.9668 30.1904 38.0917Q29.982 38.2167 29.7677 38.3312Q29.5534 38.4458 29.3337 38.5496Q29.114 38.6535 28.8895 38.7465Q28.665 38.8395 28.4362 38.9214Q28.2075 39.0032 27.9749 39.0738Q27.7424 39.1443 27.5067 39.2034Q27.271 39.2624 27.0327 39.3098Q26.7943 39.3572 26.554 39.3929Q26.3136 39.4285 26.0718 39.4523Q25.83 39.4762 25.5873 39.4881Q25.3446 39.5 25.1016 39.5L9.89844 39.5Q9.65545 39.5 9.41274 39.4881Q9.17004 39.4762 8.92822 39.4523Q8.6864 39.4285 8.44603 39.3929Q8.20567 39.3572 7.96735 39.3098Q7.72902 39.2624 7.49331 39.2034Q7.2576 39.1443 7.02507 39.0738Q6.79254 39.0032 6.56375 38.9214Q6.33496 38.8395 6.11047 38.7465Q5.88597 38.6535 5.66631 38.5496Q5.44665 38.4458 5.23235 38.3312Q5.01804 38.2167 4.80962 38.0917Q4.6012 37.9668 4.39916 37.8318Q4.19712 37.6968 4.00194 37.5521Q3.80677 37.4073 3.61893 37.2532Q3.4311 37.099 3.25105 36.9358Q3.07101 36.7726 2.89918 36.6008Q2.72736 36.429 2.56418 36.2489Q2.40099 36.0689 2.24684 35.8811Q2.09269 35.6932 1.94794 35.4981Q1.80319 35.3029 1.66819 35.1008Q1.53319 34.8988 1.40826 34.6904Q1.28334 34.482 1.16879 34.2677Q1.05425 34.0534 0.950356 33.8337Q0.846463 33.614 0.753474 33.3895Q0.660484 33.165 0.578622 32.9362Q0.49676 32.7075 0.426223 32.4749Q0.355686 32.2424 0.296644 32.0067Q0.237601 31.771 0.190196 31.5326Q0.14279 31.2943 0.107136 31.054Q0.0714812 30.8136 0.0476637 30.5718Q0.0238462 30.33 0.0119231 30.0873Q0 29.8446 0 29.6016L0 9.89844Q0 9.65545 0.0119231 9.41274Q0.0238462 9.17004 0.0476637 8.92822Q0.0714812 8.6864 0.107136 8.44603Q0.14279 8.20567 0.190196 7.96735Q0.237601 7.72902 0.296644 7.49331Q0.355686 7.2576 0.426223 7.02507Q0.49676 6.79254 0.578622 6.56375Q0.660484 6.33496 0.753474 6.11047Q0.846463 5.88597 0.950356 5.66631Q1.05425 5.44665 1.16879 5.23235Q1.28334 5.01804 1.40826 4.80962Q1.53319 4.6012 1.66819 4.39916Q1.80319 4.19712 1.94794 4.00194Q2.09269 3.80677 2.24684 3.61893Q2.40099 3.4311 2.56418 3.25105Q2.72736 3.07101 2.89918 2.89918Q3.07101 2.72736 3.25105 2.56418Q3.4311 2.40099 3.61893 2.24684Q3.80677 2.09269 4.00194 1.94794Q4.19712 1.80319 4.39916 1.66819Q4.6012 1.53319 4.80962 1.40826Q5.01804 1.28334 5.23235 1.16879Q5.44665 1.05425 5.66631 0.950356Q5.88597 0.846463 6.11047 0.753474Q6.33496 0.660484 6.56375 0.578622Q6.79254 0.49676 7.02507 0.426223Q7.2576 0.355686 7.49331 0.296644Q7.72902 0.237601 7.96735 0.190196Q8.20567 0.14279 8.44604 0.107136Q8.6864 0.0714812 8.92822 0.0476637Q9.17004 0.0238462 9.41274 0.0119231Q9.65545 0 9.89844 0Z" fill="#E5354F" fill-rule="evenodd" transform="translate(178 72)" />
      <path d="M9.89844 0L25.1016 0Q25.3446 0 25.5873 0.0119231Q25.83 0.0238462 26.0718 0.0476637Q26.3136 0.0714812 26.554 0.107136Q26.7943 0.14279 27.0326 0.190196Q27.271 0.237601 27.5067 0.296644Q27.7424 0.355686 27.9749 0.426223Q28.2075 0.49676 28.4362 0.578622Q28.665 0.660484 28.8895 0.753474Q29.114 0.846463 29.3337 0.950356Q29.5533 1.05425 29.7677 1.16879Q29.982 1.28334 30.1904 1.40826Q30.3988 1.53319 30.6008 1.66819Q30.8029 1.80319 30.998 1.94794Q31.1932 2.09269 31.3811 2.24684Q31.5689 2.40099 31.7489 2.56418Q31.929 2.72736 32.1008 2.89918Q32.2726 3.07101 32.4358 3.25105Q32.599 3.4311 32.7532 3.61893Q32.9073 3.80677 33.0521 4.00194Q33.1968 4.19712 33.3318 4.39916Q33.4668 4.6012 33.5917 4.80962Q33.7167 5.01804 33.8312 5.23235Q33.9457 5.44665 34.0496 5.66631Q34.1535 5.88597 34.2465 6.11047Q34.3395 6.33496 34.4214 6.56375Q34.5032 6.79254 34.5738 7.02507Q34.6443 7.2576 34.7034 7.49331Q34.7624 7.72902 34.8098 7.96735Q34.8572 8.20567 34.8929 8.44604Q34.9285 8.6864 34.9523 8.92822Q34.9762 9.17004 34.9881 9.41274Q35 9.65545 35 9.89844L35 13.0912L35 29.6016Q35 29.8446 34.9881 30.0873Q34.9762 30.33 34.9523 30.5718Q34.9285 30.8136 34.8929 31.054Q34.8572 31.2943 34.8098 31.5326Q34.7624 31.771 34.7034 32.0067Q34.6443 32.2424 34.5738 32.4749Q34.5032 32.7075 34.4214 32.9362Q34.3395 33.165 34.2465 33.3895Q34.1535 33.614 34.0496 33.8337Q33.9458 34.0534 33.8312 34.2677Q33.7167 34.482 33.5917 34.6904Q33.4668 34.8988 33.3318 35.1008Q33.1968 35.3029 33.0521 35.4981Q32.9073 35.6932 32.7532 35.8811Q32.599 36.0689 32.4358 36.2489Q32.2726 36.429 32.1008 36.6008Q31.929 36.7726 31.7489 36.9358Q31.5689 37.099 31.3811 37.2532Q31.1932 37.4073 30.9981 37.5521Q30.8029 37.6968 30.6008 37.8318Q30.3988 37.9668 30.1904 38.0917Q29.982 38.2167 29.7677 38.3312Q29.5534 38.4458 29.3337 38.5496Q29.114 38.6535 28.8895 38.7465Q28.665 38.8395 28.4362 38.9214Q28.2075 39.0032 27.9749 39.0738Q27.7424 39.1443 27.5067 39.2034Q27.271 39.2624 27.0327 39.3098Q26.7943 39.3572 26.554 39.3929Q26.3136 39.4285 26.0718 39.4523Q25.83 39.4762 25.5873 39.4881Q25.3446 39.5 25.1016 39.5L9.89844 39.5Q9.65545 39.5 9.41274 39.4881Q9.17004 39.4762 8.92822 39.4523Q8.6864 39.4285 8.44603 39.3929Q8.20567 39.3572 7.96735 39.3098Q7.72902 39.2624 7.49331 39.2034Q7.2576 39.1443 7.02507 39.0738Q6.79254 39.0032 6.56375 38.9214Q6.33496 38.8395 6.11047 38.7465Q5.88597 38.6535 5.66631 38.5496Q5.44665 38.4458 5.23235 38.3312Q5.01804 38.2167 4.80962 38.0917Q4.6012 37.9668 4.39916 37.8318Q4.19712 37.6968 4.00194 37.5521Q3.80677 37.4073 3.61893 37.2532Q3.4311 37.099 3.25105 36.9358Q3.07101 36.7726 2.89918 36.6008Q2.72736 36.429 2.56418 36.2489Q2.40099 36.0689 2.24684 35.8811Q2.09269 35.6932 1.94794 35.4981Q1.80319 35.3029 1.66819 35.1008Q1.53319 34.8988 1.40826 34.6904Q1.28334 34.482 1.16879 34.2677Q1.05425 34.0534 0.950356 33.8337Q0.846463 33.614 0.753474 33.3895Q0.660484 33.165 0.578622 32.9362Q0.49676 32.7075 0.426223 32.4749Q0.355686 32.2424 0.296644 32.0067Q0.237601 31.771 0.190196 31.5326Q0.14279 31.2943 0.107136 31.054Q0.0714812 30.8136 0.0476637 30.5718Q0.0238462 30.33 0.0119231 30.0873Q0 29.8446 0 29.6016L0 9.89844Q0 9.65545 0.0119231 9.41274Q0.0238462 9.17004 0.0476637 8.92822Q0.0714812 8.6864 0.107136 8.44603Q0.14279 8.20567 0.190196 7.96735Q0.237601 7.72902 0.296644 7.49331Q0.355686 7.2576 0.426223 7.02507Q0.49676 6.79254 0.578622 6.56375Q0.660484 6.33496 0.753474 6.11047Q0.846463 5.88597 0.950356 5.66631Q1.05425 5.44665 1.16879 5.23235Q1.28334 5.01804 1.40826 4.80962Q1.53319 4.6012 1.66819 4.39916Q1.80319 4.19712 1.94794 4.00194Q2.09269 3.80677 2.24684 3.61893Q2.40099 3.4311 2.56418 3.25105Q2.72736 3.07101 2.89918 2.89918Q3.07101 2.72736 3.25105 2.56418Q3.4311 2.40099 3.61893 2.24684Q3.80677 2.09269 4.00194 1.94794Q4.19712 1.80319 4.39916 1.66819Q4.6012 1.53319 4.80962 1.40826Q5.01804 1.28334 5.23235 1.16879Q5.44665 1.05425 5.66631 0.950356Q5.88597 0.846463 6.11047 0.753474Q6.33496 0.660484 6.56375 0.578622Q6.79254 0.49676 7.02507 0.426223Q7.2576 0.355686 7.49331 0.296644Q7.72902 0.237601 7.96735 0.190196Q8.20567 0.14279 8.44604 0.107136Q8.6864 0.0714812 8.92822 0.0476637Q9.17004 0.0238462 9.41274 0.0119231Q9.65545 0 9.89844 0Z" fill="#26DF48" fill-rule="evenodd" transform="translate(222 72)" />
    </g>
  </g>
</svg>