<?xml version="1.0" encoding="utf-8"?>
<svg width="315" height="315" viewBox="0 0 315 315" fill="none" xmlns="http://www.w3.org/2000/svg">
  <g>
    <g>
      <path d="M0 157.5C0 70.5151 70.5151 0 157.5 0C244.485 0 315 70.5151 315 157.5C315 244.485 244.485 315 157.5 315C70.5151 315 0 244.485 0 157.5Z" fill="#613583" fill-rule="evenodd" />
      <path d="M0 20.0001L0 40.0001L0.000244141 130C0.000244141 130 0.000244141 150.094 0.000244141 150.094C0.000236511 155.591 1.9437 160.283 5.83064 164.17C9.71758 168.057 14.4095 170 19.9065 170C19.9065 170 180.094 170 180.094 170C185.591 170 190.283 168.057 194.17 164.17C198.057 160.283 200 155.591 200 150.094C200 150.094 200 70.0001 200 70.0001C200 58.9528 191.047 50 180 50C180 50 101 50.0001 101 50.0001C92.7148 50.0001 86.0002 56.7147 86.0002 65.0001C86.0002 65.0001 86.0002 75.0001 86.0002 75.0001C86.0002 83.2855 92.7148 90.0001 101 90.0001L150.102 90.0001Q150.345 90.0001 150.587 90.012Q150.83 90.0239 151.072 90.0477Q151.314 90.0715 151.554 90.1072Q151.795 90.1429 152.033 90.1903Q152.271 90.2377 152.507 90.2967Q152.743 90.3557 152.975 90.4263Q153.208 90.4968 153.436 90.5787Q153.665 90.6605 153.89 90.7535Q154.114 90.8465 154.334 90.9504Q154.554 91.0543 154.768 91.1689Q154.982 91.2834 155.191 91.4083Q155.399 91.5332 155.601 91.6682Q155.803 91.8032 155.998 91.948Q156.193 92.0927 156.381 92.2469Q156.569 92.401 156.749 92.5642Q156.929 92.7274 157.101 92.8992Q157.273 93.0711 157.436 93.2511Q157.599 93.4312 157.753 93.619Q157.908 93.8068 158.052 94.002Q158.197 94.1972 158.332 94.3992Q158.467 94.6012 158.592 94.8097Q158.717 95.0181 158.831 95.2324Q158.946 95.4467 159.05 95.6664Q159.154 95.886 159.247 96.1105Q159.34 96.335 159.422 96.5638Q159.503 96.7926 159.574 97.0251Q159.645 97.2577 159.704 97.4934Q159.763 97.7291 159.81 97.9674Q159.857 98.2057 159.893 98.4461Q159.929 98.6865 159.953 98.9283Q159.976 99.1701 159.988 99.4128Q160 99.6555 160 99.8985L160 120.102Q160 120.345 159.988 120.587Q159.976 120.83 159.953 121.072Q159.929 121.314 159.893 121.554Q159.857 121.794 159.81 122.033Q159.763 122.271 159.704 122.507Q159.645 122.742 159.574 122.975Q159.503 123.208 159.422 123.436Q159.34 123.665 159.247 123.89Q159.154 124.114 159.05 124.334Q158.946 124.553 158.831 124.768Q158.717 124.982 158.592 125.19Q158.467 125.399 158.332 125.601Q158.197 125.803 158.052 125.998Q157.908 126.193 157.753 126.381Q157.599 126.569 157.436 126.749Q157.273 126.929 157.101 127.101Q156.929 127.273 156.749 127.436Q156.569 127.599 156.381 127.753Q156.193 127.907 155.998 128.052Q155.803 128.197 155.601 128.332Q155.399 128.467 155.191 128.592Q154.982 128.717 154.768 128.831Q154.554 128.946 154.334 129.05Q154.114 129.154 153.89 129.247Q153.665 129.34 153.436 129.421Q153.208 129.503 152.975 129.574Q152.743 129.644 152.507 129.703Q152.271 129.762 152.033 129.81Q151.795 129.857 151.554 129.893Q151.314 129.929 151.072 129.952Q150.83 129.976 150.587 129.988Q150.345 130 150.102 130L49.8987 130Q49.6557 130 49.413 129.988Q49.1703 129.976 48.9285 129.952Q48.6866 129.929 48.4463 129.893Q48.2059 129.857 47.9676 129.81Q47.7293 129.762 47.4936 129.703Q47.2578 129.644 47.0253 129.574Q46.7928 129.503 46.564 129.421Q46.3352 129.34 46.1107 129.247Q45.8862 129.154 45.6666 129.05Q45.4469 128.946 45.2326 128.831Q45.0183 128.717 44.8099 128.592Q44.6014 128.467 44.3994 128.332Q44.1974 128.197 44.0022 128.052Q43.807 127.907 43.6192 127.753Q43.4313 127.599 43.2513 127.436Q43.0713 127.273 42.8994 127.101Q42.7276 126.929 42.5644 126.749Q42.4012 126.569 42.2471 126.381Q42.0929 126.193 41.9482 125.998Q41.8034 125.803 41.6684 125.601Q41.5334 125.399 41.4085 125.19Q41.2836 124.982 41.169 124.768Q41.0545 124.553 40.9506 124.334Q40.8467 124.114 40.7537 123.89Q40.6607 123.665 40.5789 123.436Q40.497 123.208 40.4265 122.975Q40.3559 122.742 40.2969 122.507Q40.2378 122.271 40.1904 122.033Q40.143 121.794 40.1074 121.554Q40.0717 121.314 40.0479 121.072Q40.0241 120.83 40.0122 120.587Q40.0002 120.345 40.0002 120.102L40.0002 49.8985Q40.0002 49.6555 40.0122 49.4128Q40.0241 49.1701 40.0479 48.9283Q40.0717 48.6865 40.1074 48.4461Q40.143 48.2057 40.1904 47.9674Q40.2378 47.7291 40.2969 47.4934Q40.3559 47.2577 40.4265 47.0251Q40.497 46.7926 40.5789 46.5638Q40.6607 46.335 40.7537 46.1105Q40.8467 45.886 40.9506 45.6664Q41.0545 45.4467 41.169 45.2324Q41.2836 45.0181 41.4085 44.8097Q41.5334 44.6013 41.6684 44.3992Q41.8034 44.1972 41.9482 44.002Q42.0929 43.8068 42.2471 43.619Q42.4012 43.4312 42.5644 43.2511Q42.7276 43.0711 42.8994 42.8992Q43.0713 42.7274 43.2513 42.5642Q43.4313 42.4011 43.6192 42.2469Q43.807 42.0927 44.0022 41.948Q44.1974 41.8032 44.3994 41.6682Q44.6014 41.5332 44.8099 41.4083Q45.0183 41.2834 45.2326 41.1689Q45.4469 41.0543 45.6665 40.9504Q45.8862 40.8465 46.1107 40.7535Q46.3352 40.6605 46.564 40.5787Q46.7928 40.4968 47.0253 40.4263Q47.2578 40.3557 47.4936 40.2967Q47.7293 40.2377 47.9676 40.1903Q48.2059 40.1429 48.4463 40.1072Q48.6866 40.0715 48.9285 40.0477Q49.1703 40.0239 49.413 40.012Q49.6557 40.0001 49.8987 40.0001C76.0524 40.0001 145 40.0001 145 40.0001C153.286 40.0001 160 33.2855 160 25.0001C160 25.0001 160 15.0001 160 15.0001C160 6.71466 153.286 0 145 0L40.0002 6.10352e-05L20.0002 6.10352e-05C20.0002 6.10352e-05 19.9065 0 19.9065 0C14.4105 0 9.71918 1.94286 5.83246 5.82858C1.94573 9.71432 0.00165558 14.4052 0.000244141 19.9011L0 20.0001L0 20.0001Z" fill="#F6F5F4" fill-rule="evenodd" transform="translate(57 72)" />
    </g>
  </g>
</svg>