<?xml version="1.0" encoding="utf-8"?>
<svg width="200" height="170" viewBox="0 0 200 170" fill="none" xmlns="http://www.w3.org/2000/svg">
  <path d="M0 20.0001L0 40.0001L0.000244141 130C0.000244141 130 0.000244141 150.094 0.000244141 150.094C0.000244141 155.591 1.9436 160.283 5.83057 164.17C9.71753 168.057 14.4094 170 19.9065 170C19.9065 170 180.094 170 180.094 170C185.591 170 190.283 168.057 194.17 164.17C198.057 160.283 200 155.591 200 150.094C200 150.094 200 70.0001 200 70.0001C200 58.9528 191.047 50 180 50C180 50 101 50.0001 101 50.0001C92.7148 50.0001 86.0002 56.7147 86.0002 65.0001C86.0002 65.0001 86.0002 75.0001 86.0002 75.0001C86.0002 83.2855 92.7148 90.0001 101 90.0001L150.102 90.0001Q150.345 90.0001 150.587 90.012Q150.83 90.0239 151.072 90.0477Q151.314 90.0715 151.554 90.1072Q151.795 90.1429 152.033 90.1903Q152.271 90.2377 152.507 90.2967Q152.743 90.3557 152.975 90.4263Q153.208 90.4968 153.436 90.5787Q153.665 90.6605 153.89 90.7535Q154.114 90.8465 154.334 90.9504Q154.554 91.0543 154.768 91.1689Q154.982 91.2834 155.191 91.4083Q155.399 91.5332 155.601 91.6682Q155.803 91.8032 155.998 91.948Q156.193 92.0927 156.381 92.2469Q156.569 92.401 156.749 92.5642Q156.929 92.7274 157.101 92.8992Q157.273 93.0711 157.436 93.2511Q157.599 93.4312 157.753 93.619Q157.908 93.8068 158.052 94.002Q158.197 94.1972 158.332 94.3992Q158.467 94.6012 158.592 94.8097Q158.717 95.0181 158.831 95.2324Q158.946 95.4467 159.05 95.6664Q159.154 95.886 159.247 96.1105Q159.34 96.335 159.422 96.5638Q159.503 96.7926 159.574 97.0251Q159.645 97.2577 159.704 97.4934Q159.763 97.7291 159.81 97.9674Q159.857 98.2057 159.893 98.4461Q159.929 98.6865 159.953 98.9283Q159.976 99.1701 159.988 99.4128Q160 99.6555 160 99.8985L160 120.109Q160 120.351 159.988 120.594Q159.976 120.837 159.953 121.078Q159.929 121.32 159.893 121.56Q159.858 121.801 159.81 122.039Q159.763 122.277 159.704 122.513Q159.645 122.748 159.574 122.981Q159.504 123.213 159.422 123.442Q159.34 123.671 159.247 123.895Q159.155 124.119 159.051 124.339Q158.947 124.559 158.832 124.773Q158.718 124.987 158.593 125.195Q158.468 125.404 158.333 125.606Q158.199 125.808 158.054 126.003Q157.909 126.198 157.755 126.386Q157.601 126.574 157.438 126.754Q157.275 126.934 157.103 127.105Q156.932 127.277 156.752 127.44Q156.572 127.604 156.384 127.758Q156.197 127.912 156.002 128.057Q155.807 128.201 155.605 128.336Q155.403 128.471 155.194 128.596Q154.986 128.721 154.772 128.836Q154.558 128.951 154.338 129.055Q154.119 129.158 153.895 129.252Q153.67 129.345 153.442 129.427Q153.213 129.509 152.98 129.579Q152.748 129.65 152.513 129.709Q152.277 129.768 152.039 129.816Q151.801 129.863 151.56 129.899Q151.32 129.935 151.078 129.959Q150.837 129.983 150.594 129.995Q150.352 130.007 150.109 130.007L49.9055 130.077Q49.6624 130.077 49.4196 130.066Q49.1768 130.054 48.9348 130.03Q48.6929 130.007 48.4524 129.971Q48.2119 129.936 47.9735 129.888Q47.735 129.841 47.4992 129.782Q47.2633 129.723 47.0306 129.653Q46.798 129.582 46.569 129.501Q46.3401 129.419 46.1155 129.326Q45.8908 129.233 45.671 129.129Q45.4512 129.025 45.2367 128.911Q45.0223 128.796 44.8137 128.671Q44.6052 128.546 44.403 128.411Q44.2008 128.277 44.0055 128.132Q43.8101 127.987 43.6222 127.833Q43.4342 127.679 43.254 127.516Q43.0738 127.352 42.9019 127.181Q42.7299 127.009 42.5666 126.829Q42.4033 126.649 42.249 126.461Q42.0947 126.273 41.9498 126.078Q41.805 125.882 41.6699 125.68Q41.5348 125.478 41.4097 125.27Q41.2847 125.061 41.1701 124.847Q41.0554 124.632 40.9514 124.413Q40.8474 124.193 40.7544 123.968Q40.6613 123.744 40.5794 123.515Q40.4974 123.286 40.4268 123.053Q40.3562 122.821 40.2971 122.585Q40.2381 122.349 40.1906 122.111Q40.1432 121.872 40.1075 121.632Q40.0718 121.391 40.048 121.15Q40.0241 120.908 40.0122 120.665Q40.0002 120.422 40.0002 120.179L40.0002 49.9747Q40.0002 49.7319 40.0122 49.4893Q40.0241 49.2467 40.0479 49.005Q40.0717 48.7633 40.1073 48.5231Q40.1429 48.2828 40.1902 48.0446Q40.2376 47.8064 40.2966 47.5708Q40.3556 47.3352 40.426 47.1028Q40.4965 46.8704 40.5783 46.6417Q40.6601 46.413 40.753 46.1886Q40.8458 45.9642 40.9496 45.7446Q41.0534 45.525 41.1679 45.3108Q41.2823 45.0966 41.4071 44.8883Q41.5319 44.6799 41.6668 44.4779Q41.8016 44.276 41.9462 44.0808Q42.0909 43.8857 42.2449 43.6979Q42.3989 43.5101 42.5619 43.3301Q42.7249 43.1501 42.8966 42.9783Q43.0683 42.8065 43.2481 42.6433Q43.428 42.4801 43.6157 42.326Q43.8034 42.1718 43.9984 42.027Q44.1934 41.8823 44.3952 41.7472Q44.5971 41.6122 44.8053 41.4872Q45.0136 41.3623 45.2277 41.2477Q45.4418 41.1331 45.6613 41.0291Q45.8808 40.9251 46.1051 40.832Q46.3295 40.739 46.5581 40.657Q46.7867 40.575 47.0191 40.5044Q47.2514 40.4337 47.487 40.3746Q47.7225 40.3154 47.9607 40.2678Q48.1989 40.2203 48.4391 40.1845Q48.6793 40.1487 48.921 40.1247Q49.1626 40.1007 49.4052 40.0886Q49.6478 40.0765 49.8906 40.0763C76.0522 40.0553 145 40.0001 145 40.0001C153.286 40.0001 160 33.2855 160 25.0001C160 25.0001 160 15.0001 160 15.0001C160 6.71466 153.286 0 145 0L40.0002 6.10352e-05L20.0002 6.10352e-05C20.0002 6.10352e-05 19.9065 0 19.9065 0C14.4106 0 9.71924 1.94286 5.83252 5.82858C1.9458 9.71432 0.00170898 14.4052 0.000244141 19.9011L0 20.0001L0 20.0001Z" fill="#613583" fill-rule="evenodd" />
</svg>